#!OML:ASF F:\VICON\USERDATA\INSTALL\rory3\rory3.ASF
:FULLY-SPECIFIED
:DEGREES
82
root 0.47649718534866625 17.87847807823782 34.25360999686249 -3.768405675961643 -3.8997460213452397 -0.60060864613634
lfemur -12.774576054747662 -3.331889838763491 -23.685699700633748
ltibia 26.4238183534936
lfoot -12.768758393340498 1.5114535677667398
ltoes 1.423720253910171
rfemur -14.413881074135741 0.529338027533591 22.093896908411587
rtibia 77.35444340822423
rfoot 4.497783662867397 -2.265727037964759
rtoes 14.502107670814254
lowerback 10.878798604475204 1.0087441484005395 0.890310170083675
upperback 0.2502663271827782 1.6201293021669159 0.607893490059796
thorax -5.806626071301915 0.7850192162681655 0.0476097977750517
lowerneck -16.021537429773584 -3.058691674332152 -2.7286785837739096
upperneck 20.268275927332862 -4.122698491653097 2.5534360548196426
head 9.109263467412335 -1.890791889294175 0.8194573796782246
lclavicle -4.533851670731557e-16 -7.764982111288081e-16
lhumerus -33.75958569793275 7.384546058996714 79.21001940858984
lradius 19.637506491685272
lwrist 4.4204829868574915
lhand -28.244740184197237 22.630212198510527
lfingers 7.12502
lthumb -1.69624625467716 52.68979280197441
rclavicle -4.533851669637939e-16 -7.764982110439104e-16
rhumerus -27.458870815095665 -15.768300823708206 -80.59455130088533
rradius 27.918015598255028
rwrist -0.38203479221914716
rhand -18.249740440500005 21.911018326332353
rfingers 7.12502
rthumb 8.024800132502167 -7.953551827733092
83
root 0.46969831083484304 17.82046469330259 34.9609803828722 -3.747594264683201 -3.4505506095565472 -0.028432840929994763
lfemur -9.907139753419383 -3.923005932027474 -24.90786965152119
ltibia 25.982960072189723
lfoot -16.103848166554116 3.262790372454914
ltoes 1.57092549194731
rfemur -18.600520066499683 0.22967526112360348 21.631270624624474
rtibia 77.20863998017231
rfoot 0.5190343678183797 -3.954529442514351
rtoes 12.583745730037634
lowerback 11.150262756515568 0.6406315395221815 0.06427190478143485
upperback 0.33640212404146896 1.017089814853072 0.6556654435312761
thorax -5.8208882403831375 0.49807671000670456 0.5559516750938562
lowerneck -16.179930931510615 -3.019681004584947 -2.9179194568113713
upperneck 20.168658966530952 -3.999735092146697 2.5117704619756913
head 9.103917520272073 -1.8433884980591537 0.8446450553498905
lclavicle -4.533851670675259e-16 -7.764982111234752e-16
lhumerus -31.72179630831373 5.722887768758777 79.68345540413105
lradius 20.905319782665043
lwrist 5.678000069457582
lhand -29.017121170509128 20.148431866551597
lfingers 7.12502
lthumb -2.3401133321867156 50.240979382049595
rclavicle -4.533851669620404e-16 -7.764982110416008e-16
rhumerus -28.26388773661957 -15.599983599066748 -80.54425790116186
rradius 28.286938258684053
rwrist -1.1932673042928386
rhand -18.31425770009149 21.721891705808943
rfingers 7.12502
rthumb 7.957651305508032 -8.121719200818296
84
root 0.4598156616203062 17.791104206513147 35.633937935186246 -3.6218188398039133 -2.944526939417822 0.540092231753523
lfemur -7.19774478853777 -4.482101860704709 -25.92015250560399
ltibia 25.839441116759126
lfoot -18.46111874815575 4.733932205879526
ltoes 2.2231797931817483
rfemur -22.13708722228448 0.016569812995086863 21.206353327004216
rtibia 73.8194654683659
rfoot -3.679645325464614 -5.225751949967558
rtoes 9.999966974924897
lowerback 11.249004255265662 0.34174898995640124 -0.5846683265155852
upperback 0.4045413228094681 0.5189765003312903 0.7158218344184403
thorax -5.7568703705675786 0.24992069514447207 0.9864734395958548
lowerneck -16.357829137291624 -3.0037046337689546 -3.082684501583695
upperneck 20.062890326236573 -3.9367720795295025 2.6070270054586135
head 9.095619647395761 -1.8165226480793684 0.9203688052495137
lclavicle -4.533851670644971e-16 -7.764982111204721e-16
lhumerus -29.742778930929475 4.062307195631732 79.92620053151532
lradius 22.24876410484011
lwrist 6.3133365300285735
lhand -28.759000908351254 19.735093057623192
lfingers 7.12502
lthumb -2.144399698383026 49.697511562025014
rclavicle -4.53385166964462e-16 -7.764982110426849e-16
rhumerus -28.910697676832136 -15.275476148724673 -80.484099548845
rradius 28.475614375493663
rwrist -1.637674228532389
rhand -18.42549432724626 21.59738803600712
rfingers 7.12502
rthumb 7.822520507695581 -8.295091788674128
85
root 0.41858877874360156 17.80446840387384 35.8541136926301 -3.3991320238589315 -2.456063958473176 0.73052236120219
lfemur -4.560073310424334 -4.522608571745783 -26.34543814982423
ltibia 25.624552816843675
lfoot -18.24504832026394 4.874642478887154
ltoes 2.61393361464509
rfemur -24.50441357531376 0.21086274085755274 21.086992143592514
rtibia 67.11427193302768
rfoot -6.045135353462104 -6.015758001539973
rtoes 6.587460637373297
lowerback 11.30321038690659 0.06676101077029561 -1.1583188652285636
upperback 0.46422440973553375 0.053633374326307215 0.833441235038807
thorax -5.6442834865548335 0.01970001326705123 1.4979149570933679
lowerneck -16.48899227430498 -2.974586509412013 -3.179501304989741
upperneck 19.931619743011403 -3.862983766506689 2.633590469073688
head 9.074440067555368 -1.7847812201760076 0.9511189664181009
lclavicle -4.533851670594034e-16 -7.764982111160398e-16
lhumerus -27.656981603636716 2.3869392702674794 80.12170995968528
lradius 23.860641471316253
lwrist 6.824585643821935
lhand -28.743026985451593 19.09983084264409
lfingers 7.12502
lthumb -2.048178063539604 49.247068825510055
rclavicle -4.533851669611657e-16 -7.764982110395615e-16
rhumerus -29.42765803808275 -15.021152398383432 -80.34812040382563
rradius 28.526922675872896
rwrist -1.5211316688575032
rhand -18.415363602849556 21.862714374387036
rfingers 7.12502
rthumb 7.766011975000751 -8.172079771663887
